<svg width="24" height="24" viewBox="0 0 24 24" fill="none" xmlns="http://www.w3.org/2000/svg">
<path fill-rule="evenodd" clip-rule="evenodd" d="M11.9999 8.05148C10.7419 6.79348 8.78285 6.66448 7.38085 7.66348C7.08885 7.87248 6.92285 8.21748 6.92285 8.57648V15.8845C6.92285 16.3215 7.38785 16.5745 7.77385 16.3695C9.13185 15.6455 10.8559 15.8555 11.9999 17.0005V8.05148C13.2579 6.79348 15.2169 6.66448 16.6189 7.66348C16.9109 7.87148 17.0769 8.21648 17.0769 8.57548V15.8835C17.0769 16.3205 16.6119 16.5735 16.2259 16.3685C14.8679 15.6455 13.1439 15.8555 11.9999 17.0005" fill="#63275B" fill-opacity="0.7"/>
<path d="M11.9999 8.05148C10.7419 6.79348 8.78285 6.66448 7.38085 7.66348C7.08885 7.87248 6.92285 8.21748 6.92285 8.57648V15.8845C6.92285 16.3215 7.38785 16.5745 7.77385 16.3695C9.13185 15.6455 10.8559 15.8555 11.9999 17.0005V8.05148C13.2579 6.79348 15.2169 6.66448 16.6189 7.66348C16.9109 7.87148 17.0769 8.21648 17.0769 8.57548V15.8835C17.0769 16.3205 16.6119 16.5735 16.2259 16.3685C14.8679 15.6455 13.1439 15.8555 11.9999 17.0005" stroke="#FF00DD" stroke-width="1.5" stroke-linecap="round" stroke-linejoin="round"/>
<path fill-rule="evenodd" clip-rule="evenodd" d="M17 21H7C4.791 21 3 19.209 3 17V7C3 4.791 4.791 3 7 3H17C19.209 3 21 4.791 21 7V17C21 19.209 19.209 21 17 21Z" stroke="#FF00DD" stroke-width="1.5" stroke-linecap="round" stroke-linejoin="round"/>
</svg>
