<svg width="24" height="26" viewBox="0 0 24 26" fill="none" xmlns="http://www.w3.org/2000/svg">
<path fill-rule="evenodd" clip-rule="evenodd" d="M8.75696 20.7303V21.9183C8.75696 22.7782 9.0987 23.6029 9.70694 24.2107C10.3152 24.8186 11.1401 25.1598 12 25.1592V25.1592C12.8601 25.1592 13.685 24.8175 14.2931 24.2094C14.9013 23.6012 15.243 22.7763 15.243 21.9162V20.7303" fill="#96318C"/>
<path d="M8.75696 20.7303V21.9183C8.75696 22.7782 9.0987 23.6029 9.70694 24.2107C10.3152 24.8186 11.1401 25.1598 12 25.1592V25.1592C12.8601 25.1592 13.685 24.8175 14.2931 24.2094C14.9013 23.6012 15.243 22.7763 15.243 21.9162V20.7303" stroke="#96318C" stroke-width="1.5" stroke-linecap="round" stroke-linejoin="round"/>
<path fill-rule="evenodd" clip-rule="evenodd" d="M19.747 20.7303C20.4563 20.7309 21.1368 20.4493 21.6384 19.9477C22.14 19.4461 22.4216 18.7656 22.421 18.0563V18.0563C22.4199 17.3051 22.1199 16.5852 21.5873 16.0554L19.8116 14.2797V9.00667C19.8116 4.69178 16.3149 1.19322 12 1.19092V1.19092C7.68348 1.19092 4.18425 4.69015 4.18425 9.00667V14.2797L2.40851 16.0554C1.87593 16.5852 1.57598 17.3051 1.57483 18.0563H1.579C1.57844 18.7656 1.85999 19.4461 2.36159 19.9477C2.86319 20.4493 3.54366 20.7309 4.25303 20.7303H19.747Z" fill="#9A388C" stroke="#A33398" stroke-width="1.5" stroke-linecap="round" stroke-linejoin="round"/>
</svg>
