<svg width="24" height="24" viewBox="0 0 24 24" fill="none" xmlns="http://www.w3.org/2000/svg">
<path fill-rule="evenodd" clip-rule="evenodd" d="M19 21H5C3.895 21 3 20.105 3 19V5C3 3.895 3.895 3 5 3H19C20.105 3 21 3.895 21 5V19C21 20.105 20.105 21 19 21Z" stroke="#FF00D7" stroke-width="1.5" stroke-linecap="round" stroke-linejoin="round"/>
<path d="M11.9989 15.4245L14.3989 16.6755C14.8659 16.9195 15.4119 16.5255 15.3229 16.0095L14.8649 13.3585L16.8069 11.4815C17.1849 11.1155 16.9769 10.4785 16.4539 10.4035L13.7709 10.0165L12.5709 7.6025C12.3369 7.1325 11.6619 7.1325 11.4289 7.6025L10.2289 10.0165L7.54593 10.4035C7.02393 10.4785 6.81493 11.1165 7.19293 11.4815L9.13493 13.3585L8.67693 16.0095C8.58793 16.5255 9.13393 16.9195 9.60093 16.6755L12.0009 15.4245" stroke="#FF00D7" stroke-width="1.5" stroke-linecap="round" stroke-linejoin="round"/>
</svg>
