<svg width="19" height="18" viewBox="0 0 19 18" fill="none" xmlns="http://www.w3.org/2000/svg">
<path fill-rule="evenodd" clip-rule="evenodd" d="M13.064 9.22819C13.0405 7.5223 12.0953 5.947 10.56 5.05529C10.3073 4.90707 9.98593 4.91503 9.74178 5.07554C9.49763 5.23606 9.3773 5.51852 9.43545 5.79462C9.60241 6.51171 9.44207 7.26225 8.99392 7.8614C8.65599 7.573 8.39732 7.21095 8.24029 6.80656C8.19187 6.65583 8.07236 6.53492 7.91677 6.47927C7.76118 6.42362 7.58714 6.43954 7.44566 6.52235C6.37026 7.21933 5.7981 8.42865 5.9645 9.65294C6.23496 11.3927 7.86795 12.6457 9.72051 12.5349C11.5731 12.424 13.0267 10.9864 13.064 9.22819Z" fill="#73296A" fill-opacity="0.5" stroke="#73296A" stroke-width="1.5" stroke-linecap="round" stroke-linejoin="round"/>
<path d="M14.5402 4.22504C16.5788 6.15633 17.1887 9.06083 16.0854 11.5842C14.9821 14.1075 12.383 15.7528 9.5 15.7528C6.61701 15.7528 4.01789 14.1075 2.91462 11.5842C1.81134 9.06083 2.42119 6.15633 4.45978 4.22504C7.24342 1.58791 11.7566 1.58791 14.5402 4.22504" stroke="#73296A" stroke-width="1.5" stroke-linecap="round" stroke-linejoin="round"/>
</svg>
