<svg width="24" height="24" viewBox="0 0 24 24" fill="none" xmlns="http://www.w3.org/2000/svg">
<path fill-rule="evenodd" clip-rule="evenodd" d="M16.5018 12.2988C16.4721 10.0243 15.2781 7.92388 13.3389 6.73493C13.0197 6.53731 12.6137 6.54792 12.3053 6.76194C11.9969 6.97596 11.8449 7.35257 11.9184 7.7207C12.1293 8.67682 11.9267 9.67755 11.3606 10.4764C10.9338 10.0919 10.607 9.60915 10.4087 9.06996C10.3475 8.86899 10.1966 8.70777 10 8.63357C9.80349 8.55938 9.58365 8.5806 9.40494 8.69102C8.04654 9.62032 7.32381 11.2327 7.534 12.8651C7.87563 15.1849 9.93835 16.8555 12.2784 16.7077C14.6185 16.5599 16.4547 14.6431 16.5018 12.2988Z" fill="#73296A" fill-opacity="0.5" stroke="#FF00E0" stroke-width="1.5" stroke-linecap="round" stroke-linejoin="round"/>
<path d="M18.3667 5.62931C20.9418 8.20437 21.7121 12.077 20.3185 15.4415C18.9249 18.806 15.6418 20.9997 12.0001 20.9997C8.35843 20.9997 5.07533 18.806 3.68172 15.4415C2.28812 12.077 3.05844 8.20437 5.63351 5.62931C9.14969 2.11315 14.8505 2.11315 18.3667 5.62931" stroke="#FF00E0" stroke-width="1.5" stroke-linecap="round" stroke-linejoin="round"/>
</svg>
