<svg width="24" height="24" viewBox="0 0 24 24" fill="none" xmlns="http://www.w3.org/2000/svg">
<rect x="2.99658" y="6.99805" width="18.0075" height="14.0058" rx="3" stroke="#FF00D7" stroke-width="1.5" stroke-linecap="round" stroke-linejoin="round"/>
<path d="M9.77604 13.7008C9.72856 13.7005 9.68296 13.7193 9.64947 13.753C9.61599 13.7866 9.59743 13.8323 9.59797 13.8798C9.59757 13.9529 9.6414 14.019 9.70891 14.0471C9.77641 14.0752 9.85418 14.0596 9.90573 14.0078C9.95728 13.956 9.97237 13.8781 9.94393 13.8108C9.91548 13.7434 9.84914 13.6999 9.77604 13.7008" stroke="#FF00D7" stroke-width="1.5" stroke-linecap="round" stroke-linejoin="round"/>
<path d="M9.77602 10.8206C9.72871 10.8206 9.68336 10.8396 9.6501 10.8732C9.61683 10.9068 9.59841 10.9524 9.59895 10.9997C9.59854 11.0728 9.64238 11.1389 9.70988 11.167C9.77739 11.195 9.85516 11.1795 9.90671 11.1277C9.95826 11.0758 9.97335 10.998 9.9449 10.9306C9.91646 10.8633 9.85012 10.8198 9.77702 10.8206" stroke="#FF00D7" stroke-width="1.5" stroke-linecap="round" stroke-linejoin="round"/>
<path d="M9.77602 16.8231C9.72871 16.8231 9.68336 16.842 9.6501 16.8756C9.61683 16.9093 9.59841 16.9548 9.59895 17.0021C9.59854 17.0753 9.64238 17.1413 9.70988 17.1694C9.77739 17.1975 9.85516 17.1819 9.90671 17.1301C9.95826 17.0783 9.97335 17.0004 9.9449 16.9331C9.91646 16.8657 9.85012 16.8223 9.77702 16.8231" stroke="#FF00D7" stroke-width="1.5" stroke-linecap="round" stroke-linejoin="round"/>
<path d="M7.02228 12.4114C6.97353 12.4971 7.00326 12.6061 7.08877 12.6552C7.17429 12.7043 7.28342 12.675 7.33287 12.5897C7.38233 12.5044 7.3535 12.3951 7.26839 12.3453C7.22713 12.3209 7.17775 12.3141 7.13143 12.3265C7.08511 12.339 7.04576 12.3695 7.02228 12.4114" stroke="#FF00D7" stroke-width="1.5" stroke-linecap="round" stroke-linejoin="round"/>
<path d="M12.2204 15.4134C12.1968 15.4545 12.1905 15.5033 12.2031 15.549C12.2157 15.5947 12.2461 15.6334 12.2875 15.6565C12.3504 15.6926 12.4289 15.6872 12.4863 15.6427C12.5436 15.5982 12.5685 15.5235 12.5492 15.4536C12.5299 15.3836 12.4703 15.3322 12.3983 15.3234C12.3262 15.3146 12.256 15.3502 12.2204 15.4134" stroke="#FF00D7" stroke-width="1.5" stroke-linecap="round" stroke-linejoin="round"/>
<path d="M7.02296 15.5925C7.07303 15.6776 7.18242 15.7061 7.26761 15.6563C7.3528 15.6065 7.38168 15.4972 7.33219 15.4119C7.28271 15.3265 7.17352 15.2973 7.08799 15.3464C7.00211 15.3965 6.97301 15.5066 7.02296 15.5925" stroke="#FF00D7" stroke-width="1.5" stroke-linecap="round" stroke-linejoin="round"/>
<path d="M12.2224 12.5913C12.2458 12.6326 12.2849 12.6628 12.3309 12.6748C12.3769 12.6869 12.4258 12.6798 12.4665 12.6553C12.5292 12.6189 12.5639 12.5483 12.5541 12.4764C12.5444 12.4045 12.4923 12.3456 12.4221 12.3272C12.3519 12.3088 12.2776 12.3345 12.2338 12.3924C12.1901 12.4502 12.1856 12.5288 12.2224 12.5913" stroke="#FF00D7" stroke-width="1.5" stroke-linecap="round" stroke-linejoin="round"/>
<path d="M15.7515 10.9336H17.7523" stroke="#FF00D7" stroke-width="1.5" stroke-linecap="round" stroke-linejoin="round"/>
<path d="M15.7515 13.935H17.7523" stroke="#FF00D7" stroke-width="1.5" stroke-linecap="round" stroke-linejoin="round"/>
<path d="M21.0039 18.0026V10.0083C21.0041 8.60883 20.1086 7.36633 18.781 6.92397L6.99805 2.99634" stroke="#FF00D7" stroke-width="1.5" stroke-linecap="round" stroke-linejoin="round"/>
</svg>
