<svg width="24" height="24" viewBox="0 0 24 24" fill="none" xmlns="http://www.w3.org/2000/svg">
<path d="M14.0718 10.493C14.0718 11.478 13.1448 12.277 12.0008 12.277C10.8568 12.277 9.92984 11.479 9.92984 10.493V10.532C9.92784 11.496 8.99984 12.278 7.85684 12.278C6.48684 12.268 5.59284 10.912 6.18684 9.742L7.57084 7.016C7.88684 6.395 8.54984 6 9.27784 6H14.7208C15.4488 6 16.1118 6.395 16.4278 7.016L17.8128 9.742C18.4068 10.911 17.5138 12.268 16.1428 12.278C14.9988 12.278 14.0718 11.497 14.0718 10.532V10.493" stroke="#FF00D5" stroke-width="1.5" stroke-linecap="round" stroke-linejoin="round"/>
<path fill-rule="evenodd" clip-rule="evenodd" d="M18 21H6C4.343 21 3 19.657 3 18V6C3 4.343 4.343 3 6 3H18C19.657 3 21 4.343 21 6V18C21 19.657 19.657 21 18 21Z" stroke="#FF00D5" stroke-width="1.5" stroke-linecap="round" stroke-linejoin="round"/>
<path fill-rule="evenodd" clip-rule="evenodd" d="M13.5194 17.9966V15.8706C13.5194 15.0316 12.8394 14.3516 12.0004 14.3516C11.1614 14.3516 10.4814 15.0316 10.4814 15.8706V17.9966" fill="#FF00D5"/>
<path d="M13.5194 17.9966V15.8706C13.5194 15.0316 12.8394 14.3516 12.0004 14.3516C11.1614 14.3516 10.4814 15.0316 10.4814 15.8706V17.9966" stroke="#FF00D5" stroke-width="1.5" stroke-linecap="round" stroke-linejoin="round"/>
<path d="M6.5332 18H17.4682" stroke="#FF00D5" stroke-width="1.5" stroke-linecap="round" stroke-linejoin="round"/>
<path d="M7.24805 12.1797V18.0017" stroke="#FF00D5" stroke-width="1.5" stroke-linecap="round" stroke-linejoin="round"/>
<path d="M16.752 18.0017V12.1797" stroke="#FF00D5" stroke-width="1.5" stroke-linecap="round" stroke-linejoin="round"/>
</svg>
