<svg width="30" height="31" viewBox="0 0 30 31" fill="none" xmlns="http://www.w3.org/2000/svg">
<path fill-rule="evenodd" clip-rule="evenodd" d="M26.2545 15.4969V15.4969C26.2545 21.7132 21.2161 26.7516 14.9998 26.7516V26.7516C8.78347 26.7516 3.74512 21.7132 3.74512 15.4969V15.4969C3.74512 9.28054 8.78347 4.24219 14.9998 4.24219V4.24219C21.2161 4.24219 26.2545 9.28054 26.2545 15.4969Z" stroke="#FF00E0" stroke-width="1.5" stroke-linecap="round" stroke-linejoin="round"/>
<path fill-rule="evenodd" clip-rule="evenodd" d="M14.9046 16.7056C15.7724 17.5734 15.7724 18.9815 14.9046 19.8494C14.0367 20.7173 12.6286 20.7173 11.7608 19.8494C10.8929 18.9815 10.8929 17.5734 11.7608 16.7056C12.6286 15.8377 14.0355 15.8377 14.9046 16.7056Z" fill="#FF00E0"/>
<path d="M14.9046 16.7056C15.7724 17.5734 15.7724 18.9815 14.9046 19.8494C14.0367 20.7173 12.6286 20.7173 11.7608 19.8494C10.8929 18.9815 10.8929 17.5734 11.7608 16.7056C12.6286 15.8377 14.0355 15.8377 14.9046 16.7056" stroke="#FF00E0" stroke-width="1.5" stroke-linecap="round" stroke-linejoin="round"/>
<path d="M18.8903 11.6039L15.5552 10.4922V18.2729" stroke="#FF00E0" stroke-width="1.5" stroke-linecap="round" stroke-linejoin="round"/>
</svg>
