<svg width="32" height="32" viewBox="0 0 32 32" fill="none" xmlns="http://www.w3.org/2000/svg">
<path d="M13.7817 4.20312C11.0598 4.71343 8.59859 6.15056 6.81641 8.27023" stroke="white" stroke-width="1.5" stroke-linecap="round" stroke-linejoin="round"/>
<path d="M4.65277 12.1094C3.75381 14.6915 3.77682 17.5053 4.71788 20.0724" stroke="white" stroke-width="1.5" stroke-linecap="round" stroke-linejoin="round"/>
<path d="M6.94482 23.8672C8.71546 25.9098 11.125 27.2934 13.7817 27.7929" stroke="white" stroke-width="1.5" stroke-linecap="round" stroke-linejoin="round"/>
<path d="M18.1826 4.20312C23.8737 5.2515 28.0051 10.2134 28.0051 16.0003C28.0051 21.7871 23.8737 26.7491 18.1826 27.7975" stroke="white" stroke-width="1.5" stroke-linecap="round" stroke-linejoin="round"/>
<path fill-rule="evenodd" clip-rule="evenodd" d="M14.5871 12.0768L19.7653 15.1394C20.0697 15.3194 20.2565 15.6468 20.2565 16.0004C20.2565 16.3541 20.0697 16.6815 19.7653 16.8615L14.5871 19.9241C14.2777 20.107 13.894 20.1099 13.5818 19.9318C13.2697 19.7537 13.077 19.4218 13.0771 19.0624V12.9385C13.077 12.5791 13.2697 12.2472 13.5818 12.0691C13.894 11.8909 14.2777 11.8939 14.5871 12.0768V12.0768Z" stroke="white" stroke-width="1.5" stroke-linecap="round" stroke-linejoin="round"/>
</svg>
