<svg width="24" height="24" viewBox="0 0 24 24" fill="none" xmlns="http://www.w3.org/2000/svg">
<path d="M2.99609 7.9924H21.0036" stroke="#FF00D8" stroke-width="1.5" stroke-linecap="round" stroke-linejoin="round"/>
<path d="M10.9943 5.48739L10.9893 5.4924L10.9943 5.4974L10.9994 5.4924L10.9943 5.48739" stroke="#FF00D8" stroke-width="1.5" stroke-linecap="round" stroke-linejoin="round"/>
<path d="M8.49337 5.48739L8.48837 5.4924L8.49337 5.4974L8.49837 5.4924L8.49337 5.48739" stroke="#FF00D8" stroke-width="1.5" stroke-linecap="round" stroke-linejoin="round"/>
<path d="M5.9924 5.48739L5.98739 5.4924L5.9924 5.4974L5.9974 5.4924L5.9924 5.48739" stroke="#822F75" stroke-width="1.5" stroke-linecap="round" stroke-linejoin="round"/>
<path d="M8.99859 19.9993H4.99693C4.46623 19.9993 3.95722 19.7887 3.58196 19.4134C3.2067 19.0381 2.99609 18.5291 2.99609 17.9984V4.99302C2.99609 4.46232 3.2067 3.95332 3.58196 3.57806C3.95722 3.2028 4.46623 2.99219 4.99693 2.99219H19.0028C19.5335 2.99219 20.0425 3.2028 20.4177 3.57806C20.793 3.95332 21.0036 4.46232 21.0036 4.99302V10.9955" stroke="#FF00D8" stroke-width="1.5" stroke-linecap="round" stroke-linejoin="round"/>
<path fill-rule="evenodd" clip-rule="evenodd" d="M12 16.0008V20.0025C12 21.1075 12.8958 22.0033 14.0008 22.0033H20.0033C21.1084 22.0033 22.0042 21.1075 22.0042 20.0025V16.0008C22.0042 14.8958 21.1084 14 20.0033 14H14.0008C12.8958 14 12 14.8958 12 16.0008Z" stroke="#FF00D8" stroke-width="1.5" stroke-linecap="round" stroke-linejoin="round"/>
<path d="M14.7637 17L16.51 17.8823C16.828 18.0398 17.2013 18.0398 17.5193 17.8823L19.2655 17" stroke="#FF00D8" stroke-width="1.5" stroke-linecap="round" stroke-linejoin="round"/>
</svg>
