<svg width="32" height="33" viewBox="0 0 32 33" fill="none" xmlns="http://www.w3.org/2000/svg">
<path fill-rule="evenodd" clip-rule="evenodd" d="M25.3333 28.5H6.66667C5.19333 28.5 4 27.3067 4 25.8333V7.16667C4 5.69333 5.19333 4.5 6.66667 4.5H25.3333C26.8067 4.5 28 5.69333 28 7.16667V25.8333C28 27.3067 26.8067 28.5 25.3333 28.5Z" stroke="#FF00D7" stroke-width="1.5" stroke-linecap="round" stroke-linejoin="round"/>
<path d="M15.9987 21.0634L19.1987 22.7314C19.8214 23.0567 20.5494 22.5314 20.4307 21.8434L19.8201 18.3087L22.4094 15.8061C22.9134 15.3181 22.6361 14.4687 21.9387 14.3687L18.3614 13.8527L16.7614 10.6341C16.4494 10.0074 15.5494 10.0074 15.2387 10.6341L13.6387 13.8527L10.0614 14.3687C9.3654 14.4687 9.08673 15.3194 9.59073 15.8061L12.1801 18.3087L11.5694 21.8434C11.4507 22.5314 12.1787 23.0567 12.8014 22.7314L16.0014 21.0634" stroke="#FF00D7" stroke-width="1.5" stroke-linecap="round" stroke-linejoin="round"/>
</svg>
