<svg width="24" height="24" viewBox="0 0 24 24" fill="none" xmlns="http://www.w3.org/2000/svg">
<path fill-rule="evenodd" clip-rule="evenodd" d="M21.0036 11.9959V11.9959C21.0036 16.969 16.9729 20.9997 11.9998 20.9997V20.9997C7.02677 20.9997 2.99609 16.969 2.99609 11.9959V11.9959C2.99609 7.02287 7.02677 2.99219 11.9998 2.99219V2.99219C16.9729 2.99219 21.0036 7.02287 21.0036 11.9959Z" stroke="#FF00DD" stroke-width="1.5" stroke-linecap="round" stroke-linejoin="round"/>
<path fill-rule="evenodd" clip-rule="evenodd" d="M11.9235 12.9582C12.6177 13.6525 12.6177 14.779 11.9235 15.4733C11.2292 16.1676 10.1027 16.1676 9.40841 15.4733C8.71412 14.779 8.71412 13.6525 9.40841 12.9582C10.1027 12.2639 11.2282 12.2639 11.9235 12.9582Z" fill="#FF00DD"/>
<path d="M11.9235 12.9582C12.6177 13.6525 12.6177 14.779 11.9235 15.4733C11.2292 16.1676 10.1027 16.1676 9.40841 15.4733C8.71412 14.779 8.71412 13.6525 9.40841 12.9582C10.1027 12.2639 11.2282 12.2639 11.9235 12.9582" stroke="#FF00DD" stroke-width="1.5" stroke-linecap="round" stroke-linejoin="round"/>
<path d="M15.1124 8.88156L12.4443 7.99219V14.2168" stroke="#FF00DD" stroke-width="1.5" stroke-linecap="round" stroke-linejoin="round"/>
</svg>
