<svg width="24" height="25" viewBox="0 0 24 25" fill="none" xmlns="http://www.w3.org/2000/svg">
<path d="M17 7.25C17 6.69772 17.4477 6.25 18 6.25C18.5523 6.25 19 6.69772 19 7.25V17.25C19 17.8023 18.5523 18.25 18 18.25C17.4477 18.25 17 17.8023 17 17.25V7.25ZM21 10.5C21 9.94772 21.4477 9.5 22 9.5C22.5523 9.5 23 9.94772 23 10.5V14.5C23 15.0523 22.5523 15.5 22 15.5C21.4477 15.5 21 15.0523 21 14.5V10.5ZM13 10.25C13 9.69772 13.4477 9.25 14 9.25C14.5523 9.25 15 9.69772 15 10.25V14.25C15 14.8023 14.5523 15.25 14 15.25C13.4477 15.25 13 14.8023 13 14.25V10.25ZM5 7.5C5 6.94772 5.44772 6.5 6 6.5C6.55228 6.5 7 6.94772 7 7.5V17.5C7 18.0523 6.55228 18.5 6 18.5C5.44772 18.5 5 18.0523 5 17.5V7.5ZM1 10.5C1 9.94772 1.44772 9.5 2 9.5C2.55228 9.5 3 9.94772 3 10.5V14.5C3 15.0523 2.55228 15.5 2 15.5C1.44772 15.5 1 15.0523 1 14.5V10.5ZM9 4.5C9 3.94772 9.44771 3.5 10 3.5C10.5523 3.5 11 3.94772 11 4.5V20.5C11 21.0523 10.5523 21.5 10 21.5C9.44771 21.5 9 21.0523 9 20.5V4.5Z" fill="white"/>
</svg>
