<svg width="22" height="18" viewBox="0 0 22 18" fill="none" xmlns="http://www.w3.org/2000/svg">
<path fill-rule="evenodd" clip-rule="evenodd" d="M12.3571 3.45056C12.3068 2.96422 12.2543 2.45963 12.1254 1.95611C11.7741 0.75153 10.801 9.62017e-06 9.7576 9.62017e-06C9.1757 -0.00214038 8.43954 0.35644 8.0222 0.71932L4.56287 3.61697H2.75194C1.41918 3.61697 0.347511 4.6444 0.145131 6.12705C-0.0268383 7.5506 -0.0687823 10.2379 0.145131 11.8042C0.330731 13.3706 1.35416 14.383 2.75194 14.383H4.56287L8.08931 17.3236C8.45107 17.6382 9.0897 17.9989 9.6769 17.9989C9.7146 18 9.7482 18 9.7817 18C10.845 18 11.7814 17.2206 12.1327 16.0192C12.265 15.5113 12.3114 15.0352 12.3563 14.5752L12.3571 14.5666L12.4043 14.1082C12.5846 12.6213 12.5846 5.36908 12.4043 3.89288L12.3571 3.45056ZM16.4066 3.49458C16.1182 3.06943 15.5467 2.96315 15.1283 3.25839C14.7141 3.55577 14.6114 4.14196 14.8997 4.56603C15.7019 5.74806 16.1434 7.322 16.1434 9C16.1434 10.677 15.7019 12.2519 14.8997 13.434C14.6114 13.858 14.7141 14.4442 15.1294 14.7416C15.2846 14.8511 15.466 14.9091 15.6526 14.9091C15.9536 14.9091 16.2346 14.7577 16.4066 14.5054C17.4195 13.0131 17.9784 11.0581 17.9784 9C17.9784 6.94191 17.4195 4.98688 16.4066 3.49458ZM18.2901 0.22106C18.7074 -0.0752504 19.281 0.0331795 19.5673 0.45726C21.136 2.76657 22 5.80164 22 8.9999C22 12.2003 21.136 15.2343 19.5673 17.5436C19.3963 17.7959 19.1143 17.9473 18.8133 17.9473C18.6267 17.9473 18.4463 17.8893 18.2911 17.7798C17.8759 17.4824 17.7731 16.8973 18.0604 16.4722C19.4173 14.4731 20.165 11.8192 20.165 8.9999C20.165 6.18169 19.4173 3.52775 18.0604 1.52871C17.7731 1.10464 17.8759 0.51845 18.2901 0.22106Z" fill="white"/>
</svg>
