<svg width="12" height="10" viewBox="0 0 12 10" fill="none" xmlns="http://www.w3.org/2000/svg">
<path d="M5.88086 0.679314C6.10547 0.780876 6.25 1.00353 6.25 1.24963V8.74963C6.25 8.99572 6.10547 9.21838 5.88086 9.31994C5.65625 9.4215 5.39258 9.38049 5.20898 9.21642L2.57422 6.87463H1.25C0.560547 6.87463 0 6.31408 0 5.62463V4.37463C0 3.68517 0.560547 3.12463 1.25 3.12463H2.57422L5.20898 0.782829C5.39258 0.618767 5.65625 0.579704 5.88086 0.679314ZM8.30078 3.26135L9.375 4.33556L10.4492 3.26135C10.6328 3.07775 10.9297 3.07775 11.1113 3.26135C11.293 3.44494 11.2949 3.74181 11.1113 3.92345L10.0371 4.99767L11.1113 6.07189C11.2949 6.25549 11.2949 6.55236 11.1113 6.734C10.9277 6.91564 10.6309 6.91759 10.4492 6.734L9.375 5.65978L8.30078 6.734C8.11719 6.91759 7.82031 6.91759 7.63867 6.734C7.45703 6.55041 7.45508 6.25353 7.63867 6.07189L8.71289 4.99767L7.63867 3.92345C7.45508 3.73986 7.45508 3.44299 7.63867 3.26135C7.82227 3.0797 8.11914 3.07775 8.30078 3.26135Z" fill="white"/>
</svg>
