<svg width="54" height="54" viewBox="0 0 54 54" fill="none" xmlns="http://www.w3.org/2000/svg">
<path d="M26.9168 0.333252C12.1967 0.333252 0.25 12.2799 0.25 26.9999C0.25 41.7199 12.1967 53.6666 26.9168 53.6666C41.6368 53.6666 53.5835 41.7199 53.5835 26.9999C53.5835 12.2799 41.6635 0.333252 26.9168 0.333252ZM23.5835 35.0799C23.5835 36.3599 23.0501 36.8666 21.6899 36.8666H18.2233C16.8633 36.8666 16.33 36.3599 16.33 35.0799V18.9199C16.33 17.6399 16.8633 17.1333 18.2233 17.1333H21.6633C23.0232 17.1333 23.5565 17.6399 23.5565 18.9199V35.0799H23.5835ZM37.6632 35.0799C37.6632 36.3599 37.1299 36.8666 35.7699 36.8666H32.3299C30.9699 36.8666 30.4365 36.3599 30.4365 35.0799V18.9199C30.4365 17.6399 30.9699 17.1333 32.3299 17.1333H35.7699C37.1299 17.1333 37.6632 17.6399 37.6632 18.9199V35.0799Z" fill="#D306BB"/>
</svg>
