<svg width="24" height="24" viewBox="0 0 24 24" fill="none" xmlns="http://www.w3.org/2000/svg">
<path d="M19.0858 6.00006H5.75C4.64543 6.00006 3.75 6.89549 3.75 8.00006V18.0001C3.75 19.1046 4.64543 20.0001 5.75 20.0001H18.25C19.3546 20.0001 20.25 19.1046 20.25 18.0001V13.0001C20.25 12.4478 20.6977 12.0001 21.25 12.0001C21.8023 12.0001 22.25 12.4478 22.25 13.0001V18.0001C22.25 20.2092 20.4591 22.0001 18.25 22.0001H5.75C3.54086 22.0001 1.75 20.2092 1.75 18.0001V8.00006C1.75 5.79092 3.54086 4.00006 5.75 4.00006H19.0858L17.9645 2.87874C17.5739 2.48821 17.5739 1.85505 17.9645 1.46452C18.355 1.074 18.9882 1.074 19.3787 1.46452L21.5 3.58584C22.281 4.36689 22.281 5.63322 21.5 6.41427L19.3787 8.53559C18.9882 8.92612 18.355 8.92612 17.9645 8.53559C17.5739 8.14507 17.5739 7.5119 17.9645 7.12138L19.0858 6.00006ZM12 16.9386V11.9143L11.7071 12.2072C11.3166 12.5977 10.6834 12.5977 10.2929 12.2072C9.90237 11.8166 9.90237 11.1835 10.2929 10.793L12.2929 8.79295C12.9229 8.16299 14 8.60915 14 9.50006V16.9386C14 17.4909 13.5523 17.9386 13 17.9386C12.4477 17.9386 12 17.4909 12 16.9386Z" fill="white"/>
</svg>
