<?xml version="1.0"?>
<svg width="24" height="24" xmlns="http://www.w3.org/2000/svg" xmlns:svg="http://www.w3.org/2000/svg">

 <g class="layer">
  <title>Layer 1</title>
  <path clip-rule="evenodd" d="m9.53,2.47c-0.29,-0.29 -0.77,-0.29 -1.06,0c-0.29,0.29 -0.29,0.77 0,1.06l0.72,0.72l-0.19,0c-4.28,0 -7.75,3.47 -7.75,7.75c0,4.28 3.47,7.75 7.75,7.75l0.5,0c0.41,0 0.75,-0.34 0.75,-0.75c0,-0.41 -0.34,-0.75 -0.75,-0.75l-0.5,0c-3.45,0 -6.25,-2.8 -6.25,-6.25c0,-3.45 2.8,-6.25 6.25,-6.25l2,0c0.3,0 0.58,-0.18 0.69,-0.46c0.12,-0.28 0.05,-0.61 -0.16,-0.82l-2,-2z" fill="#ffff" fill-rule="evenodd" id="svg_1"/>
  <path d="m14.5,4.25c-0.41,0 -0.75,0.34 -0.75,0.75c0,0.41 0.34,0.75 0.75,0.75l0.5,0c3.45,0 6.25,2.8 6.25,6.25c0,3.45 -2.8,6.25 -6.25,6.25l-2,0c-0.3,0 -0.58,0.18 -0.69,0.46c-0.12,0.28 -0.05,0.61 0.16,0.82l2,2c0.29,0.29 0.77,0.29 1.06,0c0.29,-0.29 0.29,-0.77 0,-1.06l-0.72,-0.72l0.19,0c4.28,0 7.75,-3.47 7.75,-7.75c0,-4.28 -3.47,-7.75 -7.75,-7.75l-0.5,0z" fill="#ffff" id="svg_2"/>
  <line fill="none" fill-opacity="null" id="svg_4" stroke="#ffff" stroke-dasharray="null" stroke-linecap="null" stroke-linejoin="null" stroke-width="2" x1="0.5" x2="23" y1="23.2" y2="0.7"/>
 </g>
</svg>