<svg width="24" height="24" viewBox="0 0 24 24" fill="none" xmlns="http://www.w3.org/2000/svg">
<g clip-path="url(#clip0_424_14050)">
<path d="M22.92 14.6199C22.8724 14.4972 22.801 14.385 22.71 14.2899L19.71 11.2899C19.5217 11.1016 19.2663 10.9958 19 10.9958C18.7337 10.9958 18.4783 11.1016 18.29 11.2899C18.1017 11.4782 17.9959 11.7336 17.9959 11.9999C17.9959 12.2662 18.1017 12.5216 18.29 12.7099L19.59 13.9999H15C14.8498 13.9992 14.7017 13.9647 14.5666 13.8989C14.4316 13.8332 14.3131 13.7378 14.22 13.6199L11.72 10.4999L14.22 7.37994C14.3131 7.26209 14.4316 7.16673 14.5666 7.10094C14.7017 7.03515 14.8498 7.00063 15 6.99994H19.63L18.33 8.28994C18.2363 8.3829 18.1619 8.49351 18.1111 8.61536C18.0603 8.73722 18.0342 8.86793 18.0342 8.99994C18.0342 9.13195 18.0603 9.26266 18.1111 9.38452C18.1619 9.50638 18.2363 9.61698 18.33 9.70994C18.423 9.80367 18.5336 9.87806 18.6554 9.92883C18.7773 9.9796 18.908 10.0057 19.04 10.0057C19.172 10.0057 19.3027 9.9796 19.4246 9.92883C19.5464 9.87806 19.657 9.80367 19.75 9.70994L22.75 6.70994C22.841 6.61484 22.9124 6.50269 22.96 6.37994C23.06 6.13648 23.06 5.8634 22.96 5.61994C22.9124 5.49719 22.841 5.38505 22.75 5.28994L19.75 2.28994C19.5617 2.10164 19.3063 1.99585 19.04 1.99585C18.7737 1.99585 18.5183 2.10164 18.33 2.28994C18.1417 2.47824 18.0359 2.73364 18.0359 2.99994C18.0359 3.26624 18.1417 3.52164 18.33 3.70994L19.59 4.99994H15C14.5502 5.00082 14.1064 5.10284 13.7013 5.29844C13.2963 5.49404 12.9404 5.77821 12.66 6.12994L10.4 8.89994L7.4 5.11994C7.11235 4.76204 6.74638 4.47494 6.33029 4.28076C5.91419 4.08658 5.45908 3.99051 5 3.99994H1C0.734784 3.99994 0.48043 4.1053 0.292893 4.29283C0.105357 4.48037 0 4.73472 0 4.99994C0 5.26516 0.105357 5.51951 0.292893 5.70705C0.48043 5.89458 0.734784 5.99994 1 5.99994H5C5.15021 6.00063 5.29832 6.03515 5.43336 6.10094C5.56839 6.16673 5.68687 6.26209 5.78 6.37994L9.08 10.4999L5.78 14.6199C5.68687 14.7378 5.56839 14.8332 5.43336 14.8989C5.29832 14.9647 5.15021 14.9992 5 14.9999H1C0.734784 14.9999 0.48043 15.1053 0.292893 15.2928C0.105357 15.4804 0 15.7347 0 15.9999C0 16.2652 0.105357 16.5195 0.292893 16.707C0.48043 16.8946 0.734784 16.9999 1 16.9999H5C5.4498 16.9991 5.89365 16.897 6.2987 16.7014C6.70374 16.5058 7.05962 16.2217 7.34 15.8699L10.34 12.0999L12.56 14.8799C12.8518 15.2433 13.2242 15.5337 13.6477 15.7281C14.0712 15.9225 14.5342 16.0156 15 15.9999H19.63L18.33 17.2899C18.2363 17.3829 18.1619 17.4935 18.1111 17.6154C18.0603 17.7372 18.0342 17.8679 18.0342 17.9999C18.0342 18.132 18.0603 18.2627 18.1111 18.3845C18.1619 18.5064 18.2363 18.617 18.33 18.7099C18.423 18.8037 18.5336 18.8781 18.6554 18.9288C18.7773 18.9796 18.908 19.0057 19.04 19.0057C19.172 19.0057 19.3027 18.9796 19.4246 18.9288C19.5464 18.8781 19.657 18.8037 19.75 18.7099L22.75 15.7099C22.841 15.6148 22.9124 15.5027 22.96 15.3799C23.0474 15.1312 23.033 14.8581 22.92 14.6199Z" fill="white"/>
</g>
<defs>
<clipPath id="clip0_424_14050">
<rect width="24" height="24" fill="white"/>
</clipPath>
</defs>
</svg>
